<?xml version="1.0" encoding="UTF-8" standalone="no"?>
<!DOCTYPE svg PUBLIC "-//W3C//DTD SVG 1.1//EN" "http://www.w3.org/Graphics/SVG/1.1/DTD/svg11.dtd">
<svg width="100%" height="100%" viewBox="0 0 500 500" version="1.1" xmlns="http://www.w3.org/2000/svg" xmlns:xlink="http://www.w3.org/1999/xlink" xml:space="preserve" xmlns:serif="http://www.serif.com/" style="fill-rule:evenodd;clip-rule:evenodd;stroke-linejoin:round;stroke-miterlimit:2;">
    <g transform="matrix(1,0,0,1,0,-20986.4)">
        <g id="Page-11" serif:id="Page 11" transform="matrix(4.16667,0,0,4.16667,0,20986.4)">
            <rect x="0" y="0" width="120" height="120" style="fill:none;"/>
            <g id="Layer-1" serif:id="Layer 1">
            </g>
            <g id="Layer-4" serif:id="Layer 4">
            </g>
            <g id="Layer-2" serif:id="Layer 2">
                <g transform="matrix(1,0,0,1,105.846,41.9161)">
                    <path d="M0,14.097L-7.048,7.049L-0.014,0.014C0.011,-0.011 0.034,-0.037 0.057,-0.063C0.992,-0.983 1.525,-2.247 1.525,-3.557C1.525,-6.262 -0.675,-8.462 -3.379,-8.462C-4.689,-8.462 -5.954,-7.929 -6.874,-6.993C-6.9,-6.971 -6.926,-6.947 -6.951,-6.922L-13.985,0.112L-21.034,-6.937C-21.058,-6.961 -21.083,-6.984 -21.109,-7.006C-22.028,-7.933 -23.288,-8.462 -24.591,-8.462C-27.295,-8.462 -29.495,-6.262 -29.495,-3.557C-29.495,-2.255 -28.967,-0.995 -28.041,-0.076C-28.018,-0.05 -27.995,-0.025 -27.97,-0L-20.922,7.049L-24.591,10.718L-42.156,-6.848C-42.183,-6.875 -42.212,-6.901 -42.241,-6.926C-43.167,-7.905 -44.453,-8.462 -45.802,-8.462C-48.506,-8.462 -50.707,-6.262 -50.707,-3.557L-50.707,5.8L-63.354,-6.848C-63.382,-6.875 -63.41,-6.901 -63.439,-6.925C-64.365,-7.904 -65.651,-8.462 -67,-8.462C-69.705,-8.462 -71.905,-6.262 -71.905,-3.557L-71.905,5.914L-84.667,-6.848C-84.695,-6.875 -84.723,-6.901 -84.752,-6.926C-85.678,-7.905 -86.964,-8.462 -88.313,-8.462C-91.017,-8.462 -93.218,-6.262 -93.218,-3.557L-93.218,17.654C-93.218,20.359 -91.017,22.559 -88.313,22.559C-85.609,22.559 -83.408,20.359 -83.408,17.654L-83.408,8.284L-70.57,21.122C-70.447,21.246 -70.306,21.34 -70.156,21.407C-69.273,22.153 -68.171,22.559 -67,22.559C-64.296,22.559 -62.096,20.359 -62.096,17.654L-62.096,8.284L-49.42,20.96C-48.491,21.977 -47.174,22.559 -45.802,22.559C-43.097,22.559 -40.897,20.359 -40.897,17.654L-40.897,8.284L-28.059,21.122C-27.132,22.049 -25.9,22.559 -24.591,22.559C-23.294,22.559 -22.036,22.034 -21.119,21.114C-21.095,21.093 -21.071,21.071 -21.048,21.048L-13.985,13.985L-6.936,21.033C-6.912,21.058 -6.887,21.081 -6.861,21.103C-5.942,22.03 -4.682,22.559 -3.379,22.559C-0.675,22.559 1.525,20.359 1.525,17.654C1.525,16.352 0.997,15.092 0.071,14.173C0.048,14.147 0.025,14.121 0,14.097" style="fill:rgb(35,31,32);fill-rule:nonzero;"/>
                </g>
                <g transform="matrix(1,0,0,1,14.4647,73.1155)">
                    <path d="M0,13.393C-0.249,13.393 -0.444,13.319 -0.587,13.17C-0.73,13.021 -0.801,12.816 -0.801,12.555L-0.801,0.876C-0.801,0.59 -0.733,0.373 -0.596,0.224C-0.46,0.075 -0.28,0 -0.056,0C0.155,0 0.316,0.038 0.428,0.112C0.54,0.187 0.664,0.317 0.8,0.504L8.698,10.972L8.233,10.972L8.233,0.839C8.233,0.566 8.304,0.358 8.447,0.215C8.589,0.072 8.792,0 9.053,0C9.313,0 9.512,0.072 9.649,0.215C9.785,0.358 9.853,0.566 9.853,0.839L9.853,12.555C9.853,12.816 9.788,13.021 9.658,13.17C9.527,13.319 9.357,13.393 9.145,13.393C8.947,13.393 8.782,13.353 8.652,13.272C8.522,13.191 8.388,13.058 8.251,12.872L0.372,2.403L0.8,2.403L0.8,12.555C0.8,12.816 0.732,13.021 0.596,13.17C0.459,13.319 0.261,13.393 0,13.393" style="fill:rgb(35,31,32);fill-rule:nonzero;"/>
                </g>
                <g transform="matrix(1,0,0,1,35.8804,73.1155)">
                    <path d="M0,13.393C-0.273,13.393 -0.484,13.315 -0.633,13.16C-0.782,13.005 -0.857,12.785 -0.857,12.499L-0.857,0.895C-0.857,0.597 -0.782,0.373 -0.633,0.224C-0.484,0.075 -0.273,0 0,0C0.286,0 0.503,0.075 0.652,0.224C0.801,0.373 0.876,0.597 0.876,0.895L0.876,12.499C0.876,12.785 0.804,13.005 0.661,13.16C0.518,13.315 0.298,13.393 0,13.393" style="fill:rgb(35,31,32);fill-rule:nonzero;"/>
                </g>
                <g transform="matrix(1,0,0,1,51.7638,73.1155)">
                    <path d="M0,13.393C-0.249,13.393 -0.447,13.331 -0.596,13.207C-0.745,13.083 -0.869,12.884 -0.968,12.611L-5.029,1.025C-5.141,0.74 -5.125,0.497 -4.982,0.298C-4.839,0.1 -4.6,0 -4.265,0C-4.03,0 -3.843,0.056 -3.706,0.168C-3.57,0.28 -3.458,0.466 -3.371,0.727L0.372,11.716L-0.298,11.716L3.539,0.764C3.639,0.504 3.757,0.311 3.894,0.187C4.03,0.063 4.21,0 4.433,0C4.669,0 4.852,0.063 4.983,0.187C5.113,0.311 5.221,0.51 5.309,0.783L9.072,11.716L8.476,11.716L12.257,0.727C12.343,0.479 12.455,0.296 12.592,0.178C12.729,0.06 12.921,0 13.17,0C13.455,0 13.666,0.1 13.803,0.298C13.939,0.497 13.958,0.74 13.858,1.025L9.76,12.629C9.674,12.89 9.556,13.083 9.407,13.207C9.258,13.331 9.059,13.393 8.811,13.393C8.55,13.393 8.345,13.331 8.196,13.207C8.047,13.083 7.923,12.884 7.823,12.611L4.192,2.18L4.601,2.18L0.95,12.629C0.851,12.89 0.729,13.083 0.587,13.207C0.444,13.331 0.249,13.393 0,13.393" style="fill:rgb(35,31,32);fill-rule:nonzero;"/>
                </g>
                <g transform="matrix(1,0,0,1,80.8167,73.1158)">
                    <path d="M0,13.43C-0.869,13.43 -1.636,13.315 -2.3,13.085C-2.964,12.856 -3.52,12.514 -3.967,12.061C-4.414,11.608 -4.753,11.043 -4.982,10.366C-5.212,9.689 -5.327,8.904 -5.327,8.01L-5.327,0.876C-5.327,0.578 -5.253,0.357 -5.104,0.215C-4.955,0.072 -4.743,0 -4.47,0C-4.185,0 -3.967,0.072 -3.818,0.215C-3.669,0.357 -3.595,0.578 -3.595,0.876L-3.595,7.954C-3.595,9.283 -3.291,10.273 -2.682,10.925C-2.074,11.577 -1.18,11.902 0,11.902C1.18,11.902 2.074,11.577 2.683,10.925C3.291,10.273 3.596,9.283 3.596,7.954L3.596,0.876C3.596,0.578 3.67,0.357 3.819,0.215C3.968,0.072 4.178,0 4.452,0C4.725,0 4.936,0.072 5.085,0.215C5.234,0.357 5.309,0.578 5.309,0.876L5.309,8.01C5.309,9.19 5.107,10.183 4.703,10.99C4.3,11.797 3.704,12.406 2.916,12.815C2.126,13.225 1.155,13.43 0,13.43" style="fill:rgb(35,31,32);fill-rule:nonzero;"/>
                </g>
                <g transform="matrix(1,0,0,1,96.552,73.1155)">
                    <path d="M0,13.393C-0.223,13.393 -0.41,13.334 -0.559,13.216C-0.708,13.098 -0.792,12.946 -0.811,12.76C-0.829,12.574 -0.77,12.387 -0.633,12.201L3.837,6.222L3.837,6.892L-0.372,1.23C-0.521,1.019 -0.587,0.82 -0.568,0.634C-0.55,0.447 -0.469,0.296 -0.326,0.178C-0.184,0.06 -0.007,0 0.204,0C0.391,0 0.555,0.041 0.698,0.122C0.841,0.203 0.981,0.348 1.117,0.56L4.843,5.644L4.302,5.644L7.991,0.56C8.127,0.348 8.267,0.203 8.41,0.122C8.553,0.041 8.723,0 8.922,0C9.145,0 9.329,0.06 9.472,0.178C9.614,0.296 9.695,0.447 9.713,0.634C9.733,0.82 9.661,1.019 9.5,1.23L5.29,6.892L5.29,6.222L9.741,12.201C9.878,12.387 9.94,12.574 9.927,12.76C9.915,12.946 9.835,13.098 9.686,13.216C9.537,13.334 9.344,13.393 9.108,13.393C8.947,13.393 8.792,13.349 8.643,13.263C8.494,13.176 8.345,13.033 8.196,12.834L4.228,7.414L4.88,7.414L0.931,12.834C0.782,13.033 0.633,13.176 0.484,13.263C0.335,13.349 0.173,13.393 0,13.393" style="fill:rgb(35,31,32);fill-rule:nonzero;"/>
                </g>
            </g>
            <g id="Layer-3" serif:id="Layer 3">
            </g>
        </g>
    </g>
</svg>
